<?xml version="1.0" encoding="utf-8"?>
<!-- Generator: Adobe Illustrator 23.0.0, SVG Export Plug-In . SVG Version: 6.00 Build 0)  -->
<svg version="1.1" id="Layer_1" xmlns="http://www.w3.org/2000/svg" xmlns:xlink="http://www.w3.org/1999/xlink" x="0px" y="0px"
	 viewBox="0 0 16 16" style="enable-background:new 0 0 16 16;" xml:space="preserve">
<style type="text/css">
	.st0{fill-rule:evenodd;clip-rule:evenodd;fill:#9157FD;}
</style>
<path class="st0" d="M1.63,0.08c0.57,0,1.15,0,1.72,0c0,4.73,0.01,9.47,0.01,14.2c2.08,0,4.15,0,6.23,0c0,0.57,0,1.15,0,1.72
	c-2.65,0-5.31,0-7.96,0C1.63,10.69,1.63,5.39,1.63,0.08z"/>
<polygon class="st0" points="13.57,0.08 13.57,16 11.84,16 11.84,8.91 9.59,8.91 9.59,7.17 11.84,7.17 11.84,1.8 7.33,1.8 
	7.33,12.24 5.61,12.24 5.61,0.08 "/>
</svg>
